<?xml version="1.0" encoding="UTF-8" standalone="no"?>
<!-- Created with Inkscape (http://www.inkscape.org/) -->

<svg
   width="107.83914mm"
   height="157.62325mm"
   viewBox="0 0 107.83914 157.62325"
   version="1.1"
   id="svg1"
   xmlns="http://www.w3.org/2000/svg"
   xmlns:svg="http://www.w3.org/2000/svg">
  <defs
     id="defs1">
    <linearGradient
       id="swatch10">
      <stop
         style="stop-color:#000000;stop-opacity:1;"
         offset="0"
         id="stop10" />
    </linearGradient>
  </defs>
  <g
     id="layer1"
     transform="translate(-63.207513,-51.087534)">
    <path
       id="path2"
       style="fill:#ffcc00;fill-rule:evenodd;stroke:none;stroke-width:1.1"
       d="m 153.448,65.186719 c -37.94875,5e-6 -90.24072,36.584801 -90.240489,74.632651 4.7e-5,38.04763 30.763525,68.89139 68.712089,68.8914 22.61721,0 20.22322,-11.38652 14.61926,-28.6029 -3.43559,0.99831 -7.41152,1.75012 -11.39104,1.61747 -10.76428,-0.35881 -22.60534,-5.3821 -22.60534,-5.3821 l -6.45852,-40.90448 c -3.21815,-3.7545 -6.277077,-7.13602 -6.458516,-11.12335 -0.04836,-6.08632 3.934566,-14.71073 36.239646,-14.71073 3.73594,0 7.08486,0.13769 10.09344,0.38396 13.46346,-25.440681 35.50575,-44.801921 7.48947,-44.801921 z m -7.48947,44.801921 c -0.33321,0.62964 -0.66263,1.26014 -0.98443,1.89704 a 32.472294,10.584891 0 0 1 22.82548,10.09757 32.472294,10.584891 0 0 1 -29.82919,10.51719 c -0.30151,2.07026 -0.48936,4.15144 -0.48938,6.24251 -2e-5,15.37139 5.25913,29.69458 9.05785,41.36492 5.85739,-1.70203 10.13736,-4.12378 10.13736,-4.12378 l 6.81716,-39.82754 c 5.49557,-5.7638 7.17002,-9.79775 7.53546,-13.63483 0.32066,-3.36697 -3.52344,-10.76938 -25.07031,-12.53308 z m -7.98814,22.5118 c 1.03416,-7.10077 3.68378,-14.04406 7.00371,-20.61476 a 32.472294,10.584891 0 0 0 -9.64696,-0.48731 32.472294,10.584891 0 0 0 -32.47244,10.58488 32.472294,10.584891 0 0 0 32.47244,10.58489 32.472294,10.584891 0 0 0 2.64325,-0.0677 z" />
    <path
       style="fill:none;fill-rule:evenodd;stroke:#008000;stroke-width:1.2;stroke-dasharray:3.6, 3.6;stroke-dashoffset:0;stroke-opacity:1"
       d="m 137.54785,120.44256 c -2.51167,-11.84072 -5.74096,-13.99358 -2.87048,-19.01692 2.87048,-5.023338 14.7112,-7.535011 12.91715,-17.940491 -1.79405,-10.40549 -9.32906,-6.81739 -12.55834,-11.48192 -3.22929,-4.66453 -0.71762,-10.7643 5.38214,-14.3524"
       id="path5" />
    <path
       id="path8"
       style="fill:#008000;fill-opacity:1;fill-rule:evenodd;stroke-width:0.783;stroke-dasharray:none"
       d="m 133.20595,51.087624 c -0.79289,-0.006 -1.32954,0.28869 -1.2883,1.11983 0.13641,2.74924 6.01962,1.15626 6.84868,0.91829 a 1.7871593,1.7871593 0 0 1 0.0336,-0.1142 c -0.48102,-0.25165 -3.71812,-1.91021 -5.59397,-1.92392 z m 5.59397,1.92392 c 0.0386,0.0202 0.13126,0.0677 0.13126,0.0677 0,0 -0.10274,0.0287 -0.16485,0.0465 a 1.7871593,1.7871593 0 0 0 -0.0543,0.41341 1.7871593,1.7871593 0 0 0 1.78697,1.78697 1.7871593,1.7871593 0 0 0 1.78749,-1.78697 1.7871593,1.7871593 0 0 0 -1.78749,-1.78697 1.7871593,1.7871593 0 0 0 -1.69912,1.25936 z m 3.51762,0.79065 c 0,0 4.12068,6.99554 5.53402,4.39611 1.41336,-2.59943 -5.53402,-4.39611 -5.53402,-4.39611 z" />
  </g>
</svg>
